Coordinates
version=1
nRows=17
nColumns=36
inDegrees=yes

Units are S.I. units (second, meters, Newtons, ...)
If the header above contains a line with 'inDegrees', this indicates whether rotational values are in degrees (yes) or radians (no).

endheader
time	pelvis_tilt	pelvis_list	pelvis_rotation	pelvis_tx	pelvis_ty	pelvis_tz	hip_flexion_r	hip_adduction_r	hip_rotation_r	knee_angle_r	knee_angle_r_beta	ankle_angle_r	subtalar_angle_r	mtp_angle_r	hip_flexion_l	hip_adduction_l	hip_rotation_l	knee_angle_l	knee_angle_l_beta	ankle_angle_l	subtalar_angle_l	mtp_angle_l	lumbar_extension	lumbar_bending	lumbar_rotation	arm_flex_r	arm_add_r	arm_rot_r	elbow_flex_r	pro_sup_r	arm_flex_l	arm_add_l	arm_rot_l	elbow_flex_l	pro_sup_l
      0.71000000	     -4.54808249	      5.67488905	      3.82503842	     -0.76841677	      1.17741130	     -0.54955629	     -0.22759050	     -0.81194706	     -0.89320405	     38.46130864	      0.67127647	      9.57279016	    -16.88662410	     -5.31918525	     36.30773105	      1.56134430	     -4.75264961	     69.48860009	      1.21280486	      5.79670442	     -2.25986517	     -5.31918525	     -6.07749752	     -4.18189363	     -2.64846179	     33.66184461	    -34.48669638	     -6.28371051	     97.88917370	    102.06636983	     52.79781798	    -31.88439177	     38.03362077	     67.34297906	    105.02265366
      0.72000000	     -4.45828908	      5.87657256	      3.59720877	     -0.75755198	      1.18137500	     -0.55025754	      0.41556882	     -1.35994019	     -1.49348913	     40.07317806	      0.69940890	      5.34838147	    -17.78759066	     -5.42298788	     36.12441162	      1.61447733	     -5.19796892	     68.02085479	      1.18718788	      5.54711374	     -1.79684802	     -5.42298788	     -5.80084766	     -4.39899595	     -2.35476803	     34.13691219	    -36.70249850	     -5.51382371	     99.64639578	    102.13375356	     54.06314097	    -33.17861229	     39.41977251	     68.39014187	    105.06561375
      0.73000000	     -4.37873672	      5.96041967	      3.32101774	     -0.74707966	      1.18505340	     -0.55080350	      1.49603945	     -1.83331676	     -1.99321523	     42.12413932	      0.73520493	      0.25331361	    -18.79532011	     -5.51785459	     35.95024960	      1.54080751	     -5.48571691	     66.53674431	      1.16128526	      5.20560775	     -1.17229681	     -5.51785459	     -5.64557164	     -4.46728681	     -2.04329096	     34.57833545	    -38.99307265	     -4.75856860	    101.51239339	    102.13104973	     55.27729219	    -34.47516955	     40.52930265	     69.40636596	    105.03224927
      0.74000000	     -4.28269347	      6.15660430	      2.93707513	     -0.73686703	      1.18821749	     -0.55153050	      2.97743538	     -2.64099762	     -2.57201241	     44.64272076	      0.77916246	     -4.42959947	    -17.97158555	     -5.54345959	     35.68507720	      1.59799640	     -5.76563641	     64.95524862	      1.13368295	      4.71763007	     -0.62161519	     -5.54345959	     -5.60494633	     -4.60088023	     -1.74016789	     35.08333772	    -41.40807388	     -3.78278777	    103.42175119	    102.26147744	     56.27286800	    -35.76821476	     41.02288236	     70.44325235	    105.10555643
      0.75000000	     -4.25630761	      6.28490278	      2.50821194	     -0.72717681	      1.19049548	     -0.55194076	      4.79672733	     -3.13957796	     -2.57953958	     47.10221276	      0.82208870	    -11.92308867	    -21.10151608	     -5.62640350	     35.54180639	      1.60445305	     -5.77054190	     63.42428273	      1.10696256	      3.76572936	     -0.36036659	     -5.62640350	     -5.69879834	     -4.77050950	     -1.48439335	     35.56602135	    -43.75957869	     -3.06951995	    105.31201280	    102.10571613	     57.80343789	    -37.61654738	     42.59587484	     71.84229068	    105.03646659
      0.76000000	     -4.26949441	      6.57077750	      2.07869487	     -0.71744932	      1.19185453	     -0.55261011	      6.74663101	     -3.91475090	     -2.65533757	     49.66696936	      0.86685214	    -16.42821542	    -22.71508436	     -5.71286412	     35.38683255	      1.71842903	     -5.96056377	     61.83917186	      1.07929716	      2.90860178	      0.01252900	     -5.71286412	     -5.78139352	     -5.08582366	     -1.14627102	     35.73171169	    -46.50640994	     -2.43048219	    107.44135853	    101.84129820	     59.25743202	    -39.10780582	     43.88943333	     73.06086813	    104.82025512
      0.77000000	     -4.33060880	      6.82106002	      1.61341762	     -0.70779856	      1.19211404	     -0.55313651	      8.76430030	     -4.61732714	     -2.69664608	     52.12323428	      0.90972205	    -16.91740473	    -23.77758363	     -5.73693048	     35.34025302	      1.78424253	     -6.08580785	     60.45535930	      1.05514507	      2.19466921	      0.43050234	     -5.73693048	     -5.91250527	     -5.33981956	     -0.94693342	     35.89514561	    -49.42888403	     -1.61450415	    109.66631638	    101.89059465	     60.51614083	    -41.02975849	     44.89509654	     74.47597940	    104.89202127
      0.78000000	     -4.48674894	      6.89723649	      1.16724284	     -0.69840301	      1.19121939	     -0.55325938	     10.85924243	     -4.87545453	     -2.44300805	     54.07472732	      0.94378203	    -15.66586995	    -25.76369211	     -5.76839026	     35.46607719	      1.62954169	     -6.11130943	     59.21590554	      1.03351252	      1.48818010	      0.55841584	     -5.76839026	     -6.02977049	     -5.45513417	     -0.82638119	     35.91582583	    -52.33493796	     -1.04888037	    111.86969970	    101.79519845	     62.08539674	    -43.20325885	     46.61332786	     75.94507006	    104.92431836
      0.79000000	     -4.58555164	      6.94108062	      0.70341866	     -0.68928131	      1.18929907	     -0.55314974	     12.90569123	     -4.98387821	     -2.02046784	     55.40257710	      0.96695738	    -14.06990025	    -27.07603272	     -6.10629577	     35.59699236	      1.37306835	     -6.14090620	     58.17077451	      1.01527154	      0.95913196	      0.68003516	     -6.10629577	     -6.32578902	     -5.70581161	      0.86099251	     31.76470859	    -56.64490926	     -4.97967294	    115.61205600	     98.70177385	     65.53252445	    -42.92429704	     50.38764612	     75.24952676	    102.85455927
      0.80000000	     -4.73222202	      6.84989104	      0.27921788	     -0.68022767	      1.18628254	     -0.55335176	     14.89686922	     -4.90036683	     -1.51922078	     55.93512590	      0.97625211	    -13.29710907	    -27.94115255	     -6.12659968	     35.85188819	      0.95679954	     -6.15904537	     57.31977176	      1.00041874	      0.70703297	      0.93254810	     -6.12659968	     -6.56037146	     -5.46343914	      0.82215493	     31.35525817	    -59.92127999	     -4.75619093	    117.86050070	     98.78849189	     66.45625093	    -44.85915027	     50.93934849	     76.22646178	    102.96206953
      0.81000000	     -4.89746490	      6.79297171	      0.02321311	     -0.67116257	      1.18212513	     -0.55364891	     16.75903227	     -4.83341283	     -1.10549395	     55.82050191	      0.97425155	    -13.02858886	    -28.40466660	     -6.19243125	     36.13292537	      0.69525574	     -6.02538752	     56.49567540	      0.98603555	      0.59509314	      0.98727559	     -6.19243125	     -6.93924778	     -5.43254161	      0.56292682	     29.56609500	    -62.96351438	     -6.32769857	    120.20427352	     98.38743363	     68.99328682	    -47.78666651	     54.77066274	     77.92356269	    103.02381775
      0.82000000	     -5.08912803	      6.66946640	     -0.07156232	     -0.66202632	      1.17690486	     -0.55403529	     18.45661431	     -4.63167345	     -0.70383385	     55.05617472	      0.96091152	    -12.34082786	    -28.20958220	     -6.74572388	     36.49540807	      0.49041538	     -5.75144285	     55.81758740	      0.97420068	      0.63494325	      0.72771466	     -6.74572388	     -7.67821536	     -5.68148444	      4.02060556	      8.89213125	    -67.93004159	    -27.35349294	    125.86894692	     94.17365301	     75.12640758	    -44.99601301	     62.50377789	     76.09441156	     98.88086918
      0.83000000	     -5.22087120	      6.46265267	      0.01675116	     -0.65280376	      1.17089750	     -0.55452657	     19.87388220	     -4.32034335	     -0.38849755	     53.62083909	      0.93586019	    -11.31407996	    -27.49790768	     -7.21049562	     36.82745385	      0.28130430	     -5.40179099	     55.22688442	      0.96389097	      0.78598384	      0.37056076	     -7.21049562	     -8.51961371	     -5.51393622	      6.05895530	    -13.33431165	    -69.53174961	    -50.06615207	    130.15615436	     94.32792790	     78.79775521	    -43.73173297	     66.82980181	     75.09926903	     99.62065260
      0.84000000	     -5.31718158	      6.20972373	      0.27531123	     -0.64349838	      1.16403691	     -0.55516796	     21.00696048	     -3.95581228	     -0.09560700	     51.51291792	      0.89907002	    -10.04353972	    -26.13621435	     -7.35502267	     37.17838345	      0.09105559	     -4.98111189	     54.76268759	      0.95578921	      1.10471805	      0.18499206	     -7.35502267	     -9.54977145	     -5.13731614	      8.28137082	    -37.77562848	    -67.00062672	    -75.23740397	    134.50747814	     92.55964565	     81.77436300	    -41.98999260	     70.30721946	     74.03378889	     98.47739983
      0.85000000	     -5.42020070	      5.95755908	      0.69403741	     -0.63408697	      1.15631118	     -0.55601714	     21.91474522	     -3.61161241	      0.22448467	     48.83202635	      0.85227964	     -8.76799146	    -24.23327227	     -7.39385201	     37.56588799	      0.00262259	     -4.45515660	     54.35853453	      0.94873540	      1.32642797	      0.21813018	     -7.39385201	    -10.58919403	     -4.59748310	      9.77366331	    -53.89757136	    -61.67940026	    -92.07411427	    138.01283342	     91.81008083	     84.01277879	    -41.26168863	     73.19922643	     73.58345034	     98.22704647
      0.86000000	     -5.46730811	      5.81962916	      1.21010300	     -0.62468210	      1.14779631	     -0.55695105	     22.65662103	     -3.44209743	      0.58306032	     45.87609042	      0.80068883	     -7.29439750	    -21.28610209	     -7.40598479	     37.88610397	      0.08266784	     -3.99717424	     53.94061710	      0.94144137	      1.43254654	      0.23159763	     -7.40598479	    -11.69994435	     -4.01132638	     10.38517543	    -63.18596589	    -55.69130866	   -102.25706542	    141.09194015	     91.37114278	     85.70938693	    -41.82309516	     75.87649113	     73.90323378	     98.55818886
      0.87000000	     -5.54993155	      5.74330988	      1.81385452	     -0.61522497	      1.13839434	     -0.55794610	     23.34275810	     -3.35117775	      1.01709752	     42.68042046	      0.74491386	     -6.67289970	    -18.77589511	     -7.41328204	     38.23340811	      0.28135101	     -3.55344292	     53.50796849	      0.93389023	      1.42187660	      0.10030136	     -7.41328204	    -12.67946970	     -3.35170473	     10.15618165	    -68.69875613	    -49.99728584	   -108.24722160	    143.59393766	     91.12822125	     86.68770230	    -43.61001164	     78.07296580	     74.96598292	     99.21094184
